<svg xmlns="http://www.w3.org/2000/svg" xmlns:xlink="http://www.w3.org/1999/xlink" width="269px" height="62px" viewBox="0 0 269 62" version="1.1"><title>pendo-logo</title><desc>Created with Sketch.</desc><defs><polygon id="path-1" points="199.944874 49.0889748 199.944874 12.5410756 163.397378 12.5410756 163.397378 49.0889748 199.944874 49.0889748"/><polygon id="path-3" points="-68.5713613 61.4265546 -13.4036303 61.4265546 -13.4036303 6.25862185 -68.5713613 6.25862185 -68.5713613 61.4265546"/></defs><g id="Page-1" stroke="none" stroke-width="1" fill="none" fill-rule="evenodd"><g id="pendo-logo" transform="translate(69.000000, 0.000000)"><path d="M30.8941176,30.6115966 C30.8941176,37.4489076 25.3317647,43.0112605 18.4947899,43.0112605 C11.6578151,43.0112605 6.09512605,37.4489076 6.09512605,30.6115966 C6.09512605,23.7746218 11.6578151,18.2122689 18.4947899,18.2122689 C25.3317647,18.2122689 30.8941176,23.7746218 30.8941176,30.6115966 M18.4947899,12.3376471 C13.8578151,12.3376471 9.48504202,14.0589916 6.09512605,17.2015126 L6.09512605,12.6317647 L6.09512605,12.2956303 L5.7589916,12.2956303 L0.55697479,12.2956303 L0.220840336,12.2956303 L0.220840336,12.6317647 L0.220840336,61.0902521 L0.220840336,61.4263866 L0.55697479,61.4263866 L5.7589916,61.4263866 L6.09512605,61.4263866 L6.09512605,61.0902521 L6.09512605,44.0216807 C9.48504202,47.1642017 13.8578151,48.8855462 18.4947899,48.8855462 C28.5710924,48.8855462 36.7684034,40.6878992 36.7684034,30.6115966 C36.7684034,20.5352941 28.5710924,12.3376471 18.4947899,12.3376471" id="Fill-1" fill="#FFFFFF"/><path d="M47.5094118,27.632437 C48.8519328,22.1248739 53.8529412,18.1702521 59.557479,18.1702521 C65.1877311,18.1702521 69.9043697,22.0405042 71.1611765,27.632437 L47.5094118,27.632437 Z M59.557479,12.2956303 C49.4811765,12.2956303 41.2838655,20.4932773 41.2838655,30.5695798 C41.2838655,40.6458824 49.4811765,48.8435294 59.557479,48.8435294 C65.2005042,48.8435294 70.3803361,46.7309244 73.7685714,43.0472269 L75.5295798,41.1329412 L75.7571429,40.8855462 L75.5097479,40.6579832 L71.6811765,37.1363025 L71.4337815,36.9087395 L71.2062185,37.1561345 L69.4452101,39.0707563 C67.1994958,41.5117647 63.5030252,42.9692437 59.557479,42.9692437 C53.8532773,42.9692437 48.8519328,39.0142857 47.5094118,33.5067227 L77.0223529,33.5067227 L77.3584874,33.5067227 L77.3584874,33.1705882 L77.3584874,30.5695798 C77.3584874,20.322521 69.5393277,12.2956303 59.557479,12.2956303 L59.557479,12.2956303 Z" id="Fill-3" fill="#FFFFFF"/><path d="M99.5779832,12.2957647 C95.3843697,12.2957647 91.3897479,13.8813109 88.2452101,16.7771092 L88.2452101,12.6318992 L88.2452101,12.2957647 L87.9090756,12.2957647 L82.7070588,12.2957647 L82.3709244,12.2957647 L82.3709244,12.6318992 L82.3709244,30.3330756 L82.3709244,32.934084 L82.3709244,48.7945882 L82.3709244,49.1307227 L82.7070588,49.1307227 L87.9090756,49.1307227 L88.2452101,49.1307227 L88.2452101,48.7945882 L88.2452101,32.934084 L88.2452101,30.3330756 C88.2452101,23.626521 93.3289076,18.1700504 99.5779832,18.1700504 C105.827395,18.1700504 110.911429,23.626521 110.911429,30.3330756 L110.911429,48.7945882 L110.911429,49.1307227 L111.247563,49.1307227 L116.44958,49.1307227 L116.785714,49.1307227 L116.785714,48.7945882 L116.785714,30.3330756 C116.785714,20.3871933 109.066387,12.2957647 99.5779832,12.2957647" id="Fill-5" fill="#FFFFFF"/><path d="M152.432571,30.8150252 C152.432571,37.652 146.870218,43.2143529 140.033244,43.2143529 C133.195933,43.2143529 127.63358,37.652 127.63358,30.8150252 C127.63358,23.9777143 133.195933,18.4153613 140.033244,18.4153613 C146.870218,18.4153613 152.432571,23.9777143 152.432571,30.8150252 L152.432571,30.8150252 Z M152.768706,0.000235294118 L152.432571,0.000235294118 L152.432571,0.336369748 L152.432571,17.4049412 C149.042655,14.262084 144.670218,12.5410756 140.033244,12.5410756 C129.956941,12.5410756 121.759294,20.7387227 121.759294,30.8150252 C121.759294,40.8913277 129.956941,49.0889748 140.033244,49.0889748 C144.670218,49.0889748 149.042655,47.3676303 152.432571,44.2251092 L152.432571,48.7948571 L152.432571,49.1309916 L152.768706,49.1309916 L157.970723,49.1309916 L158.306857,49.1309916 L158.306857,48.7948571 L158.306857,0.336369748 L158.306857,0.000235294118 L157.970723,0.000235294118 L152.768706,0.000235294118 Z" id="Fill-7" fill="#FFFFFF"/><mask id="mask-2" fill="white"><use xlink:href="#path-1"/></mask><g id="Clip-10"/><path d="M194.070655,30.8150252 C194.070655,37.652 188.508303,43.2143529 181.670992,43.2143529 C174.834017,43.2143529 169.271664,37.652 169.271664,30.8150252 C169.271664,23.9777143 174.834017,18.4153613 181.670992,18.4153613 C188.508303,18.4153613 194.070655,23.9777143 194.070655,30.8150252 M181.670992,12.5410756 C171.595025,12.5410756 163.397378,20.7387227 163.397378,30.8150252 C163.397378,40.8913277 171.595025,49.0889748 181.670992,49.0889748 C191.747294,49.0889748 199.944941,40.8913277 199.944941,30.8150252 C199.944941,20.7387227 191.747294,12.5410756 181.670992,12.5410756" id="Fill-9" fill="#FFFFFF"/><mask id="mask-4" fill="white"><use xlink:href="#path-3"/></mask><g id="Clip-13"/><polygon id="Fill-12" fill="#EC2059" points="-40.9874958 6.25862185 -68.5713613 33.8424874 -40.9874958 33.8424874 -40.9874958 61.4266891 -13.4036303 33.8424874 -13.4036303 6.25862185"/></g></g></svg>